<?xml version="1.0" standalone="no"?>
<!DOCTYPE svg PUBLIC "-//W3C//DTD SVG 20010904//EN"
 "http://www.w3.org/TR/2001/REC-SVG-20010904/DTD/svg10.dtd">
<svg version="1.0" xmlns="http://www.w3.org/2000/svg"
 width="318.000000pt" height="318.000000pt" viewBox="0 0 318.000000 318.000000"
 preserveAspectRatio="xMidYMid meet">
<metadata>
Created by potrace 1.11, written by Peter Selinger 2001-2013
</metadata>
<g transform="translate(0.000000,318.000000) scale(0.100000,-0.100000)"
fill="#000000" stroke="none">
<path d="M1604 3160 c-62 -13 -110 -36 -178 -84 -80 -57 -142 -137 -187 -239
-50 -114 -62 -175 -57 -293 3 -82 9 -109 31 -156 33 -68 91 -128 155 -159 68
-35 184 -33 265 4 165 75 294 241 332 428 22 108 17 220 -14 301 -27 70 -106
160 -159 181 -49 20 -137 28 -188 17z"/>
<path d="M595 2741 c-106 -38 -179 -92 -245 -181 -91 -124 -129 -223 -137
-360 -14 -241 111 -400 316 -401 34 0 83 7 110 16 216 72 393 352 379 599 -7
116 -37 188 -107 256 -88 87 -202 112 -316 71z"/>
<path d="M2377 2690 c-185 -66 -335 -257 -367 -468 -41 -269 87 -473 297 -473
101 0 165 24 259 94 96 72 163 172 208 309 94 285 -31 543 -268 555 -53 3 -85
-2 -129 -17z"/>
<path d="M1495 1913 c-69 -15 -215 -68 -282 -101 -43 -22 -170 -72 -283 -111
-581 -202 -582 -203 -671 -300 -72 -77 -119 -150 -157 -243 -22 -54 -26 -79
-26 -173 -1 -107 0 -113 33 -179 20 -38 53 -84 77 -105 97 -85 302 -151 531
-171 228 -19 260 -25 319 -62 31 -18 123 -102 211 -191 200 -202 251 -238 368
-257 135 -22 268 33 386 157 107 113 159 243 160 399 1 67 -5 97 -31 170 -79
221 -113 341 -146 509 -19 99 -44 227 -55 285 -41 216 -138 333 -307 369 -53
11 -90 12 -127 4z"/>
<path d="M2715 1691 c-105 -27 -200 -94 -273 -190 -101 -133 -147 -269 -140
-416 7 -121 35 -193 102 -261 111 -111 278 -116 438 -13 103 66 217 241 254
389 21 85 15 213 -15 292 -27 71 -96 149 -157 178 -51 23 -159 35 -209 21z"/>
</g>
</svg>
